<!DOCTYPE svg PUBLIC "-//W3C//DTD SVG 1.1//EN" "http://www.w3.org/Graphics/SVG/1.1/DTD/svg11.dtd">

<!-- Uploaded to: SVG Repo, www.svgrepo.com, Transformed by: SVG Repo Mixer Tools -->
<svg height="50px" width="50px" version="1.1" id="Layer_1" xmlns="http://www.w3.org/2000/svg" xmlns:xlink="http://www.w3.org/1999/xlink" viewBox="0 0 512.001 512.001" xml:space="preserve" fill="#000000">

<g id="SVGRepo_bluegCarrier" stroke-width="0"/>

<g id="SVGRepo_tracerCarrier" stroke-linecap="round" stroke-linejoin="round"/>

<g id="SVGRepo_iconCarrier"> <path style="fill:blue;" d="M329.498,292.109H182.501c-7.14,0-12.929,5.789-12.929,12.929v194.033 c0,4.382,2.219,8.466,5.896,10.85c3.678,2.384,8.31,2.742,12.311,0.954L256,480.369l68.221,30.505 c1.686,0.754,3.485,1.127,5.277,1.127c2.46,0,4.907-0.701,7.035-2.081c3.677-2.384,5.896-6.467,5.896-10.85V305.038 C342.427,297.897,336.638,292.109,329.498,292.109z"/> <path style="fill:#012970;" d="M329.498,292.109H256v188.261l68.221,30.505c1.686,0.754,3.485,1.126,5.277,1.126 c2.46,0,4.907-0.701,7.035-2.081c3.677-2.384,5.896-6.467,5.896-10.85V305.038C342.427,297.897,336.638,292.109,329.498,292.109z"/> <path style="fill:#FFD322;" d="M427.891,122.448l-38.61-29.06l-14.155-46.205c-2.42-7.895-9.648-13.337-17.904-13.476l-48.317-0.816 L270.294,3.832c-6.599-4.966-15.645-5.118-22.405-0.378l-39.57,27.74l-48.316-0.816c-8.27-0.171-15.665,5.054-18.349,12.864 l-15.707,45.701l-39.569,27.74c-6.761,4.741-9.702,13.296-7.283,21.192l14.156,46.205L77.545,229.78 c-2.684,7.81-0.034,16.459,6.564,21.426l38.61,29.06l14.155,46.205c2.42,7.896,9.648,13.337,17.904,13.476l48.317,0.816l38.61,29.06 c3.39,2.551,7.424,3.832,11.464,3.832c3.824,0,7.654-1.149,10.942-3.454l39.57-27.74l48.316,0.816 c8.288,0.111,15.665-5.054,18.349-12.864l15.707-45.701l39.569-27.74c6.761-4.741,9.702-13.296,7.283-21.192l-14.156-46.205 l15.707-45.701C437.139,136.063,434.489,127.414,427.891,122.448z"/> <g> <path style="fill:#EDBE00;" d="M427.891,122.448l-38.61-29.06l-14.155-46.205c-2.42-7.895-9.648-13.337-17.904-13.476 l-48.317-0.816L270.294,3.832c-4.184-3.149-9.351-4.355-14.295-3.614V373.44c2.855-0.428,5.636-1.507,8.11-3.242l39.57-27.74 l48.316,0.816c8.288,0.111,15.665-5.054,18.349-12.864l15.707-45.701l39.569-27.74c6.761-4.741,9.702-13.296,7.283-21.192 l-14.156-46.205l15.707-45.7C437.138,136.063,434.489,127.414,427.891,122.448z"/> <circle style="fill:#EDBE00;" cx="255.995" cy="186.82" r="124.431"/> </g> <g> <path style="fill:#DAAF00;" d="M255.999,93.905c63.385,0,115.699,47.393,123.441,108.676c0.652-5.16,0.989-10.419,0.989-15.755 c0-68.721-55.71-124.431-124.431-124.431s-124.431,55.71-124.431,124.431c0,5.336,0.338,10.595,0.989,15.755 C140.301,141.298,192.614,93.905,255.999,93.905z"/> <path style="fill:#DAAF00;" d="M255.999,62.395v248.862c68.721,0,124.431-55.71,124.431-124.431 C380.431,118.105,324.721,62.395,255.999,62.395z"/> </g> </g>

</svg>